<svg width="6562" height="17" viewBox="0 0 6562 17" fill="none" xmlns="http://www.w3.org/2000/svg">
<path d="M0 4.0235C9.64399 -1.2736 14.9393 -1.40831 24.1607 4.0235C34.4369 9.37352 39.7345 9.27726 48.3214 4.0235" transform="translate(2 3)" stroke="black" stroke-width="5"/>
<path d="M0 4.02349C10.813 -1.2736 16.8722 -1.40831 27.2113 4.0235C38.7332 9.37352 44.6729 9.27726 54.3006 4.0235" transform="translate(50.1993 3)" stroke="black" stroke-width="5"/>
<path d="M0 4.0235C9.64399 -1.2736 14.9393 -1.40831 24.1607 4.0235C34.4369 9.37352 39.7345 9.27726 48.3214 4.0235" transform="translate(104.5 3)" stroke="black" stroke-width="5"/>
<path d="M0 4.02349C10.813 -1.2736 16.8722 -1.40831 27.2113 4.0235C38.7332 9.37352 44.6729 9.27726 54.3006 4.0235" transform="translate(152.7 3)" stroke="black" stroke-width="5"/>
<path d="M0 4.0235C9.64399 -1.2736 14.9393 -1.40831 24.1607 4.0235C34.4369 9.37352 39.7345 9.27726 48.3213 4.0235" transform="translate(207 3)" stroke="black" stroke-width="5"/>
<path d="M0 4.02349C10.813 -1.2736 16.8722 -1.40831 27.2113 4.0235C38.7332 9.37352 44.6729 9.27726 54.3006 4.0235" transform="translate(255.2 3)" stroke="black" stroke-width="5"/>
<path d="M0 4.0235C9.64399 -1.2736 14.9393 -1.40831 24.1607 4.0235C34.4369 9.37352 39.7345 9.27726 48.3213 4.0235" transform="translate(309.5 3)" stroke="black" stroke-width="5"/>
<path d="M0 4.02349C10.813 -1.2736 16.8722 -1.40831 27.2113 4.0235C38.7332 9.37352 44.6729 9.27726 54.3007 4.0235" transform="translate(357.7 3)" stroke="black" stroke-width="5"/>
<path d="M0 4.0235C9.64399 -1.2736 14.9393 -1.40831 24.1607 4.0235C34.4369 9.37352 39.7345 9.27726 48.3214 4.0235" transform="translate(412 3)" stroke="black" stroke-width="5"/>
<path d="M0 4.02349C10.813 -1.2736 16.8722 -1.40831 27.2113 4.0235C38.7332 9.37352 44.6729 9.27726 54.3006 4.0235" transform="translate(460.199 3)" stroke="black" stroke-width="5"/>
<path d="M0 4.0235C9.64399 -1.2736 14.9393 -1.40831 24.1607 4.0235C34.4369 9.37352 39.7345 9.27726 48.3214 4.0235" transform="translate(514.5 3)" stroke="black" stroke-width="5"/>
<path d="M0 4.02349C10.813 -1.2736 16.8722 -1.40831 27.2113 4.0235C38.7332 9.37352 44.6729 9.27726 54.3006 4.0235" transform="translate(562.7 3)" stroke="black" stroke-width="5"/>
<path d="M0 4.0235C9.64399 -1.2736 14.9393 -1.40831 24.1607 4.0235C34.4369 9.37352 39.7345 9.27726 48.3213 4.0235" transform="translate(617 3)" stroke="black" stroke-width="5"/>
<path d="M0 4.02349C10.813 -1.2736 16.8722 -1.40831 27.2113 4.0235C38.7332 9.37352 44.6729 9.27726 54.3006 4.0235" transform="translate(665.2 3)" stroke="black" stroke-width="5"/>
<path d="M0 4.0235C9.64399 -1.2736 14.9393 -1.40831 24.1607 4.0235C34.4369 9.37352 39.7345 9.27726 48.3213 4.0235" transform="translate(719.5 3)" stroke="black" stroke-width="5"/>
<path d="M0 4.02349C10.813 -1.2736 16.8722 -1.40831 27.2113 4.0235C38.7332 9.37352 44.6729 9.27726 54.3007 4.0235" transform="translate(767.7 3)" stroke="black" stroke-width="5"/>
<path d="M0 4.52643C9.64399 -1.4328 14.9393 -1.58435 24.1607 4.52643C34.4369 10.5452 39.7345 10.4369 48.3214 4.52643" transform="translate(822 3)" stroke="black" stroke-width="5"/>
<path d="M0 4.52643C10.813 -1.4328 16.8722 -1.58434 27.2113 4.52644C38.7332 10.5452 44.6729 10.4369 54.3006 4.52644" transform="translate(870.199 3)" stroke="black" stroke-width="5"/>
<path d="M0 4.52643C9.64399 -1.4328 14.9393 -1.58435 24.1607 4.52643C34.4369 10.5452 39.7345 10.4369 48.3214 4.52643" transform="translate(924.5 3)" stroke="black" stroke-width="5"/>
<path d="M0 4.52643C10.813 -1.4328 16.8722 -1.58434 27.2113 4.52644C38.7332 10.5452 44.6729 10.4369 54.3006 4.52644" transform="translate(972.7 3)" stroke="black" stroke-width="5"/>
<path d="M0 4.52643C9.64399 -1.4328 14.9393 -1.58435 24.1607 4.52643C34.4369 10.5452 39.7345 10.4369 48.3213 4.52643" transform="translate(1027 3)" stroke="black" stroke-width="5"/>
<path d="M0 4.52643C10.813 -1.4328 16.8722 -1.58434 27.2113 4.52644C38.7332 10.5452 44.6729 10.4369 54.3006 4.52644" transform="translate(1075.2 3)" stroke="black" stroke-width="5"/>
<path d="M0 4.52643C9.64399 -1.4328 14.9393 -1.58435 24.1607 4.52643C34.4369 10.5452 39.7345 10.4369 48.3213 4.52643" transform="translate(1129.5 3)" stroke="black" stroke-width="5"/>
<path d="M0 4.52643C10.813 -1.4328 16.8722 -1.58434 27.2113 4.52644C38.7332 10.5452 44.6729 10.4369 54.3007 4.52644" transform="translate(1177.7 3)" stroke="black" stroke-width="5"/>
<path d="M0 4.52643C9.64399 -1.4328 14.9393 -1.58435 24.1607 4.52643C34.4369 10.5452 39.7345 10.4369 48.3214 4.52643" transform="translate(1232 3)" stroke="black" stroke-width="5"/>
<path d="M0 4.52643C10.813 -1.4328 16.8722 -1.58434 27.2113 4.52644C38.7332 10.5452 44.6729 10.4369 54.3006 4.52644" transform="translate(1280.2 3)" stroke="black" stroke-width="5"/>
<path d="M0 4.52643C9.64399 -1.4328 14.9393 -1.58435 24.1607 4.52643C34.4369 10.5452 39.7345 10.4369 48.3214 4.52643" transform="translate(1334.5 3)" stroke="black" stroke-width="5"/>
<path d="M0 4.52643C10.813 -1.4328 16.8722 -1.58434 27.2113 4.52644C38.7332 10.5452 44.6729 10.4369 54.3006 4.52644" transform="translate(1382.7 3)" stroke="black" stroke-width="5"/>
<path d="M0 4.52643C9.64399 -1.4328 14.9393 -1.58435 24.1607 4.52643C34.4369 10.5452 39.7345 10.4369 48.3213 4.52643" transform="translate(1437 3)" stroke="black" stroke-width="5"/>
<path d="M0 4.52643C10.813 -1.4328 16.8722 -1.58434 27.2113 4.52644C38.7332 10.5452 44.6729 10.4369 54.3006 4.52644" transform="translate(1485.2 3)" stroke="black" stroke-width="5"/>
<path d="M0 4.52643C9.64399 -1.4328 14.9393 -1.58435 24.1607 4.52643C34.4369 10.5452 39.7345 10.4369 48.3213 4.52643" transform="translate(1539.5 3)" stroke="black" stroke-width="5"/>
<path d="M0 4.52643C10.813 -1.4328 16.8722 -1.58434 27.2113 4.52644C38.7332 10.5452 44.6729 10.4369 54.3007 4.52644" transform="translate(1587.7 3)" stroke="black" stroke-width="5"/>
<path d="M0 4.0235C9.64399 -1.2736 14.9393 -1.40831 24.1607 4.0235C34.4369 9.37352 39.7345 9.27726 48.3214 4.0235" transform="translate(1642 3)" stroke="black" stroke-width="5"/>
<path d="M0 4.02349C10.813 -1.2736 16.8722 -1.40831 27.2113 4.0235C38.7332 9.37352 44.6729 9.27726 54.3006 4.0235" transform="translate(1690.2 3)" stroke="black" stroke-width="5"/>
<path d="M0 4.0235C9.64399 -1.2736 14.9393 -1.40831 24.1607 4.0235C34.4369 9.37352 39.7345 9.27726 48.3214 4.0235" transform="translate(1744.5 3)" stroke="black" stroke-width="5"/>
<path d="M0 4.02349C10.813 -1.2736 16.8722 -1.40831 27.2113 4.0235C38.7332 9.37352 44.6729 9.27726 54.3006 4.0235" transform="translate(1792.7 3)" stroke="black" stroke-width="5"/>
<path d="M0 4.0235C9.64399 -1.2736 14.9393 -1.40831 24.1607 4.0235C34.4369 9.37352 39.7345 9.27726 48.3213 4.0235" transform="translate(1847 3)" stroke="black" stroke-width="5"/>
<path d="M0 4.02349C10.813 -1.2736 16.8722 -1.40831 27.2113 4.0235C38.7332 9.37352 44.6729 9.27726 54.3006 4.0235" transform="translate(1895.2 3)" stroke="black" stroke-width="5"/>
<path d="M0 4.0235C9.64399 -1.2736 14.9393 -1.40831 24.1607 4.0235C34.4369 9.37352 39.7345 9.27726 48.3213 4.0235" transform="translate(1949.5 3)" stroke="black" stroke-width="5"/>
<path d="M0 4.02349C10.813 -1.2736 16.8722 -1.40831 27.2113 4.0235C38.7332 9.37352 44.6729 9.27726 54.3007 4.0235" transform="translate(1997.7 3)" stroke="black" stroke-width="5"/>
<path d="M0 4.0235C9.64399 -1.2736 14.9393 -1.40831 24.1607 4.0235C34.4369 9.37352 39.7345 9.27726 48.3214 4.0235" transform="translate(2052 3)" stroke="black" stroke-width="5"/>
<path d="M0 4.02349C10.813 -1.2736 16.8722 -1.40831 27.2113 4.0235C38.7332 9.37352 44.6729 9.27726 54.3006 4.0235" transform="translate(2100.2 3)" stroke="black" stroke-width="5"/>
<path d="M0 4.0235C9.64399 -1.2736 14.9393 -1.40831 24.1607 4.0235C34.4369 9.37352 39.7345 9.27726 48.3214 4.0235" transform="translate(2154.5 3)" stroke="black" stroke-width="5"/>
<path d="M0 4.02349C10.813 -1.2736 16.8722 -1.40831 27.2113 4.0235C38.7332 9.37352 44.6729 9.27726 54.3006 4.0235" transform="translate(2202.7 3)" stroke="black" stroke-width="5"/>
<path d="M0 4.0235C9.64399 -1.2736 14.9393 -1.40831 24.1607 4.0235C34.4369 9.37352 39.7345 9.27726 48.3213 4.0235" transform="translate(2257 3)" stroke="black" stroke-width="5"/>
<path d="M0 4.02349C10.813 -1.2736 16.8722 -1.40831 27.2113 4.0235C38.7332 9.37352 44.6729 9.27726 54.3006 4.0235" transform="translate(2305.2 3)" stroke="black" stroke-width="5"/>
<path d="M0 4.0235C9.64399 -1.2736 14.9393 -1.40831 24.1607 4.0235C34.4369 9.37352 39.7345 9.27726 48.3213 4.0235" transform="translate(2359.5 3)" stroke="black" stroke-width="5"/>
<path d="M0 4.02349C10.813 -1.2736 16.8722 -1.40831 27.2113 4.0235C38.7332 9.37352 44.6729 9.27726 54.3007 4.0235" transform="translate(2407.7 3)" stroke="black" stroke-width="5"/>
<path d="M0 4.52643C9.64399 -1.4328 14.9393 -1.58435 24.1607 4.52643C34.4369 10.5452 39.7345 10.4369 48.3214 4.52643" transform="translate(2462 3)" stroke="black" stroke-width="5"/>
<path d="M0 4.52643C10.813 -1.4328 16.8722 -1.58434 27.2113 4.52644C38.7332 10.5452 44.6729 10.4369 54.3006 4.52644" transform="translate(2510.2 3)" stroke="black" stroke-width="5"/>
<path d="M0 4.52643C9.64399 -1.4328 14.9393 -1.58435 24.1607 4.52643C34.4369 10.5452 39.7345 10.4369 48.3214 4.52643" transform="translate(2564.5 3)" stroke="black" stroke-width="5"/>
<path d="M0 4.52643C10.813 -1.4328 16.8722 -1.58434 27.2113 4.52644C38.7332 10.5452 44.6729 10.4369 54.3006 4.52644" transform="translate(2612.7 3)" stroke="black" stroke-width="5"/>
<path d="M0 4.52643C9.64399 -1.4328 14.9393 -1.58435 24.1607 4.52643C34.4369 10.5452 39.7345 10.4369 48.3213 4.52643" transform="translate(2667 3)" stroke="black" stroke-width="5"/>
<path d="M0 4.52643C10.813 -1.4328 16.8722 -1.58434 27.2113 4.52644C38.7332 10.5452 44.6729 10.4369 54.3006 4.52644" transform="translate(2715.2 3)" stroke="black" stroke-width="5"/>
<path d="M0 4.52643C9.64399 -1.4328 14.9393 -1.58435 24.1607 4.52643C34.4369 10.5452 39.7345 10.4369 48.3213 4.52643" transform="translate(2769.5 3)" stroke="black" stroke-width="5"/>
<path d="M0 4.52643C10.813 -1.4328 16.8722 -1.58434 27.2113 4.52644C38.7332 10.5452 44.6729 10.4369 54.3007 4.52644" transform="translate(2817.7 3)" stroke="black" stroke-width="5"/>
<path d="M0 4.52643C9.64399 -1.4328 14.9393 -1.58435 24.1607 4.52643C34.4369 10.5452 39.7345 10.4369 48.3214 4.52643" transform="translate(2872 3)" stroke="black" stroke-width="5"/>
<path d="M0 4.52643C10.813 -1.4328 16.8722 -1.58434 27.2113 4.52644C38.7332 10.5452 44.6729 10.4369 54.3006 4.52644" transform="translate(2920.2 3)" stroke="black" stroke-width="5"/>
<path d="M0 4.52643C9.64399 -1.4328 14.9393 -1.58435 24.1607 4.52643C34.4369 10.5452 39.7345 10.4369 48.3214 4.52643" transform="translate(2974.5 3)" stroke="black" stroke-width="5"/>
<path d="M0 4.52643C10.813 -1.4328 16.8722 -1.58434 27.2113 4.52644C38.7332 10.5452 44.6729 10.4369 54.3006 4.52644" transform="translate(3022.7 3)" stroke="black" stroke-width="5"/>
<path d="M0 4.52643C9.64399 -1.4328 14.9393 -1.58435 24.1607 4.52643C34.4369 10.5452 39.7345 10.4369 48.3213 4.52643" transform="translate(3077 3)" stroke="black" stroke-width="5"/>
<path d="M0 4.52643C10.813 -1.4328 16.8722 -1.58434 27.2113 4.52644C38.7332 10.5452 44.6729 10.4369 54.3006 4.52644" transform="translate(3125.2 3)" stroke="black" stroke-width="5"/>
<path d="M0 4.52643C9.64399 -1.4328 14.9393 -1.58435 24.1607 4.52643C34.4369 10.5452 39.7345 10.4369 48.3213 4.52643" transform="translate(3179.5 3)" stroke="black" stroke-width="5"/>
<path d="M0 4.52643C10.813 -1.4328 16.8722 -1.58434 27.2113 4.52644C38.7332 10.5452 44.6729 10.4369 54.3007 4.52644" transform="translate(3227.7 3)" stroke="black" stroke-width="5"/>
<path d="M0 5.02937C9.59695 -1.592 14.8664 -1.76038 24.0428 5.02937C34.2689 11.7169 39.5407 11.5966 48.0856 5.02937" transform="translate(3282 3)" stroke="black" stroke-width="5"/>
<path d="M0 5.02937C10.7602 -1.592 16.7899 -1.76038 27.0786 5.02937C38.5442 11.7169 44.455 11.5966 54.0358 5.02937" transform="translate(3329.96 3)" stroke="black" stroke-width="5"/>
<path d="M0 5.02937C9.59695 -1.592 14.8664 -1.76038 24.0428 5.02937C34.2689 11.7169 39.5407 11.5966 48.0856 5.02937" transform="translate(3384 3)" stroke="black" stroke-width="5"/>
<path d="M0 5.02937C10.7602 -1.592 16.7899 -1.76038 27.0786 5.02937C38.5442 11.7169 44.455 11.5966 54.0358 5.02937" transform="translate(3431.96 3)" stroke="black" stroke-width="5"/>
<path d="M0 5.02937C9.59694 -1.592 14.8664 -1.76038 24.0428 5.02937C34.2689 11.7169 39.5407 11.5966 48.0856 5.02937" transform="translate(3486 3)" stroke="black" stroke-width="5"/>
<path d="M0 5.02937C10.7602 -1.592 16.7899 -1.76038 27.0786 5.02937C38.5442 11.7169 44.455 11.5966 54.0358 5.02937" transform="translate(3533.96 3)" stroke="black" stroke-width="5"/>
<path d="M0 5.02937C9.59694 -1.592 14.8664 -1.76038 24.0428 5.02937C34.2689 11.7169 39.5407 11.5966 48.0856 5.02937" transform="translate(3588 3)" stroke="black" stroke-width="5"/>
<path d="M0 5.02937C10.7602 -1.592 16.7899 -1.76038 27.0786 5.02937C38.5442 11.7169 44.455 11.5966 54.0358 5.02937" transform="translate(3635.96 3)" stroke="black" stroke-width="5"/>
<path d="M0 5.02937C9.59695 -1.592 14.8664 -1.76038 24.0428 5.02937C34.2689 11.7169 39.5407 11.5966 48.0856 5.02937" transform="translate(3692 3)" stroke="black" stroke-width="5"/>
<path d="M0 5.02937C10.7602 -1.592 16.7899 -1.76038 27.0786 5.02937C38.5442 11.7169 44.455 11.5966 54.0358 5.02937" transform="translate(3739.96 3)" stroke="black" stroke-width="5"/>
<path d="M0 5.02937C9.59695 -1.592 14.8664 -1.76038 24.0428 5.02937C34.2689 11.7169 39.5407 11.5966 48.0856 5.02937" transform="translate(3794 3)" stroke="black" stroke-width="5"/>
<path d="M0 5.02937C10.7602 -1.592 16.7899 -1.76038 27.0786 5.02937C38.5442 11.7169 44.455 11.5966 54.0358 5.02937" transform="translate(3841.96 3)" stroke="black" stroke-width="5"/>
<path d="M0 5.02937C9.59694 -1.592 14.8664 -1.76038 24.0428 5.02937C34.2689 11.7169 39.5407 11.5966 48.0856 5.02937" transform="translate(3896 3)" stroke="black" stroke-width="5"/>
<path d="M0 5.02937C10.7602 -1.592 16.7899 -1.76038 27.0786 5.02937C38.5442 11.7169 44.455 11.5966 54.0358 5.02937" transform="translate(3943.96 3)" stroke="black" stroke-width="5"/>
<path d="M0 5.02937C9.59694 -1.592 14.8664 -1.76038 24.0428 5.02937C34.2689 11.7169 39.5407 11.5966 48.0856 5.02937" transform="translate(3998 3)" stroke="black" stroke-width="5"/>
<path d="M0 5.02937C10.7602 -1.592 16.7899 -1.76038 27.0786 5.02937C38.5442 11.7169 44.455 11.5966 54.0358 5.02937" transform="translate(4045.96 3)" stroke="black" stroke-width="5"/>
<path d="M0 5.53231C9.59695 -1.7512 14.8664 -1.93642 24.0428 5.53231C34.2689 12.8886 39.5407 12.7562 48.0856 5.53231" transform="translate(4102 3)" stroke="black" stroke-width="5"/>
<path d="M0 5.5323C10.7602 -1.7512 16.7899 -1.93642 27.0786 5.53231C38.5442 12.8886 44.455 12.7562 54.0358 5.53231" transform="translate(4149.96 3)" stroke="black" stroke-width="5"/>
<path d="M0 5.53231C9.59695 -1.7512 14.8664 -1.93642 24.0428 5.53231C34.2689 12.8886 39.5407 12.7562 48.0856 5.53231" transform="translate(4204 3)" stroke="black" stroke-width="5"/>
<path d="M0 5.5323C10.7602 -1.7512 16.7899 -1.93642 27.0786 5.53231C38.5442 12.8886 44.455 12.7562 54.0358 5.53231" transform="translate(4251.96 3)" stroke="black" stroke-width="5"/>
<path d="M0 5.53231C9.59694 -1.7512 14.8664 -1.93642 24.0428 5.53231C34.2689 12.8886 39.5407 12.7562 48.0856 5.53231" transform="translate(4306 3)" stroke="black" stroke-width="5"/>
<path d="M0 5.5323C10.7602 -1.7512 16.7899 -1.93642 27.0786 5.53231C38.5442 12.8886 44.455 12.7562 54.0358 5.53231" transform="translate(4353.96 3)" stroke="black" stroke-width="5"/>
<path d="M0 5.53231C9.59694 -1.7512 14.8664 -1.93642 24.0428 5.53231C34.2689 12.8886 39.5407 12.7562 48.0856 5.53231" transform="translate(4408 3)" stroke="black" stroke-width="5"/>
<path d="M0 5.5323C10.7602 -1.7512 16.7899 -1.93642 27.0786 5.53231C38.5442 12.8886 44.455 12.7562 54.0358 5.53231" transform="translate(4455.96 3)" stroke="black" stroke-width="5"/>
<path d="M0 5.53231C9.59695 -1.7512 14.8664 -1.93642 24.0428 5.53231C34.2689 12.8886 39.5407 12.7562 48.0856 5.53231" transform="translate(4512 3)" stroke="black" stroke-width="5"/>
<path d="M0 5.5323C10.7602 -1.7512 16.7899 -1.93642 27.0786 5.53231C38.5442 12.8886 44.455 12.7562 54.0358 5.53231" transform="translate(4559.96 3)" stroke="black" stroke-width="5"/>
<path d="M0 5.53231C9.59695 -1.7512 14.8664 -1.93642 24.0428 5.53231C34.2689 12.8886 39.5407 12.7562 48.0856 5.53231" transform="translate(4614 3)" stroke="black" stroke-width="5"/>
<path d="M0 5.5323C10.7602 -1.7512 16.7899 -1.93642 27.0786 5.53231C38.5442 12.8886 44.455 12.7562 54.0358 5.53231" transform="translate(4661.96 3)" stroke="black" stroke-width="5"/>
<path d="M0 5.53231C9.59694 -1.7512 14.8664 -1.93642 24.0428 5.53231C34.2689 12.8886 39.5407 12.7562 48.0856 5.53231" transform="translate(4716 3)" stroke="black" stroke-width="5"/>
<path d="M0 5.5323C10.7602 -1.7512 16.7899 -1.93642 27.0786 5.53231C38.5442 12.8886 44.455 12.7562 54.0358 5.53231" transform="translate(4763.96 3)" stroke="black" stroke-width="5"/>
<path d="M0 5.53231C9.59694 -1.7512 14.8664 -1.93642 24.0428 5.53231C34.2689 12.8886 39.5407 12.7562 48.0856 5.53231" transform="translate(4818 3)" stroke="black" stroke-width="5"/>
<path d="M0 5.5323C10.7602 -1.7512 16.7899 -1.93642 27.0786 5.53231C38.5442 12.8886 44.455 12.7562 54.0358 5.53231" transform="translate(4865.96 3)" stroke="black" stroke-width="5"/>
<path d="M0 5.02937C9.59695 -1.592 14.8664 -1.76038 24.0428 5.02937C34.2689 11.7169 39.5407 11.5966 48.0856 5.02937" transform="translate(4922 3)" stroke="black" stroke-width="5"/>
<path d="M0 5.02937C10.7602 -1.592 16.7899 -1.76038 27.0786 5.02937C38.5442 11.7169 44.455 11.5966 54.0358 5.02937" transform="translate(4969.96 3)" stroke="black" stroke-width="5"/>
<path d="M0 5.02937C9.59695 -1.592 14.8664 -1.76038 24.0428 5.02937C34.2689 11.7169 39.5407 11.5966 48.0856 5.02937" transform="translate(5024 3)" stroke="black" stroke-width="5"/>
<path d="M0 5.02937C10.7602 -1.592 16.7899 -1.76038 27.0786 5.02937C38.5442 11.7169 44.455 11.5966 54.0358 5.02937" transform="translate(5071.96 3)" stroke="black" stroke-width="5"/>
<path d="M0 5.02937C9.59694 -1.592 14.8664 -1.76038 24.0428 5.02937C34.2689 11.7169 39.5407 11.5966 48.0856 5.02937" transform="translate(5126 3)" stroke="black" stroke-width="5"/>
<path d="M0 5.02937C10.7602 -1.592 16.7899 -1.76038 27.0786 5.02937C38.5442 11.7169 44.455 11.5966 54.0358 5.02937" transform="translate(5173.96 3)" stroke="black" stroke-width="5"/>
<path d="M0 5.02937C9.59694 -1.592 14.8664 -1.76038 24.0428 5.02937C34.2689 11.7169 39.5407 11.5966 48.0856 5.02937" transform="translate(5228 3)" stroke="black" stroke-width="5"/>
<path d="M0 5.02937C10.7602 -1.592 16.7899 -1.76038 27.0786 5.02937C38.5442 11.7169 44.455 11.5966 54.0358 5.02937" transform="translate(5275.96 3)" stroke="black" stroke-width="5"/>
<path d="M0 5.02937C9.59695 -1.592 14.8664 -1.76038 24.0428 5.02937C34.2689 11.7169 39.5407 11.5966 48.0856 5.02937" transform="translate(5332 3)" stroke="black" stroke-width="5"/>
<path d="M0 5.02937C10.7602 -1.592 16.7899 -1.76038 27.0786 5.02937C38.5442 11.7169 44.455 11.5966 54.0358 5.02937" transform="translate(5379.96 3)" stroke="black" stroke-width="5"/>
<path d="M0 5.02937C9.59695 -1.592 14.8664 -1.76038 24.0428 5.02937C34.2689 11.7169 39.5407 11.5966 48.0856 5.02937" transform="translate(5434 3)" stroke="black" stroke-width="5"/>
<path d="M0 5.02937C10.7602 -1.592 16.7899 -1.76038 27.0786 5.02937C38.5442 11.7169 44.455 11.5966 54.0358 5.02937" transform="translate(5481.96 3)" stroke="black" stroke-width="5"/>
<path d="M0 5.02937C9.59694 -1.592 14.8664 -1.76038 24.0428 5.02937C34.2689 11.7169 39.5407 11.5966 48.0856 5.02937" transform="translate(5536 3)" stroke="black" stroke-width="5"/>
<path d="M0 5.02937C10.7602 -1.592 16.7899 -1.76038 27.0786 5.02937C38.5442 11.7169 44.455 11.5966 54.0358 5.02937" transform="translate(5583.96 3)" stroke="black" stroke-width="5"/>
<path d="M0 5.02937C9.59694 -1.592 14.8664 -1.76038 24.0428 5.02937C34.2689 11.7169 39.5407 11.5966 48.0856 5.02937" transform="translate(5638 3)" stroke="black" stroke-width="5"/>
<path d="M0 5.02937C10.7602 -1.592 16.7899 -1.76038 27.0786 5.02937C38.5442 11.7169 44.455 11.5966 54.0358 5.02937" transform="translate(5685.96 3)" stroke="black" stroke-width="5"/>
<path d="M0 5.53231C9.59695 -1.7512 14.8664 -1.93642 24.0428 5.53231C34.2689 12.8886 39.5407 12.7562 48.0856 5.53231" transform="translate(5742 3)" stroke="black" stroke-width="5"/>
<path d="M0 5.5323C10.7602 -1.7512 16.7899 -1.93642 27.0786 5.53231C38.5442 12.8886 44.455 12.7562 54.0358 5.53231" transform="translate(5789.96 3)" stroke="black" stroke-width="5"/>
<path d="M0 5.53231C9.59695 -1.7512 14.8664 -1.93642 24.0428 5.53231C34.2689 12.8886 39.5407 12.7562 48.0856 5.53231" transform="translate(5844 3)" stroke="black" stroke-width="5"/>
<path d="M0 5.5323C10.7602 -1.7512 16.7899 -1.93642 27.0786 5.53231C38.5442 12.8886 44.455 12.7562 54.0358 5.53231" transform="translate(5891.96 3)" stroke="black" stroke-width="5"/>
<path d="M0 5.53231C9.59694 -1.7512 14.8664 -1.93642 24.0428 5.53231C34.2689 12.8886 39.5407 12.7562 48.0856 5.53231" transform="translate(5946 3)" stroke="black" stroke-width="5"/>
<path d="M0 5.5323C10.7602 -1.7512 16.7899 -1.93642 27.0786 5.53231C38.5442 12.8886 44.455 12.7562 54.0358 5.53231" transform="translate(5993.96 3)" stroke="black" stroke-width="5"/>
<path d="M0 5.53231C9.59694 -1.7512 14.8664 -1.93642 24.0428 5.53231C34.2689 12.8886 39.5407 12.7562 48.0856 5.53231" transform="translate(6048 3)" stroke="black" stroke-width="5"/>
<path d="M0 5.5323C10.7602 -1.7512 16.7899 -1.93642 27.0786 5.53231C38.5442 12.8886 44.455 12.7562 54.0358 5.53231" transform="translate(6095.96 3)" stroke="black" stroke-width="5"/>
<path d="M0 5.53231C9.59695 -1.7512 14.8664 -1.93642 24.0428 5.53231C34.2689 12.8886 39.5407 12.7562 48.0856 5.53231" transform="translate(6152 3)" stroke="black" stroke-width="5"/>
<path d="M0 5.5323C10.7602 -1.7512 16.7899 -1.93642 27.0786 5.53231C38.5442 12.8886 44.455 12.7562 54.0358 5.53231" transform="translate(6199.96 3)" stroke="black" stroke-width="5"/>
<path d="M0 5.53231C9.59695 -1.7512 14.8664 -1.93642 24.0428 5.53231C34.2689 12.8886 39.5407 12.7562 48.0856 5.53231" transform="translate(6254 3)" stroke="black" stroke-width="5"/>
<path d="M0 5.5323C10.7602 -1.7512 16.7899 -1.93642 27.0786 5.53231C38.5442 12.8886 44.455 12.7562 54.0358 5.53231" transform="translate(6301.96 3)" stroke="black" stroke-width="5"/>
<path d="M0 5.53231C9.59694 -1.7512 14.8664 -1.93642 24.0428 5.53231C34.2689 12.8886 39.5407 12.7562 48.0856 5.53231" transform="translate(6356 3)" stroke="black" stroke-width="5"/>
<path d="M0 5.5323C10.7602 -1.7512 16.7899 -1.93642 27.0786 5.53231C38.5442 12.8886 44.455 12.7562 54.0358 5.53231" transform="translate(6403.96 3)" stroke="black" stroke-width="5"/>
<path d="M0 5.53231C9.59694 -1.7512 14.8664 -1.93642 24.0428 5.53231C34.2689 12.8886 39.5407 12.7562 48.0856 5.53231" transform="translate(6458 3)" stroke="black" stroke-width="5"/>
<path d="M0 5.5323C10.7602 -1.7512 16.7899 -1.93642 27.0786 5.53231C38.5442 12.8886 44.455 12.7562 54.0358 5.53231" transform="translate(6505.96 3)" stroke="black" stroke-width="5"/>
</svg>
