<svg stroke="#300513" fill="#300513" width="20" height="30" viewBox="0 0 306 342" xmlns="http://www.w3.org/2000/svg">
<path d="M206.786 58.0626L229.495 94.4271C239.714 110.791 257.401 121.002 276.681 121.67L319.529 123.155C325.44 123.36 329.092 129.686 326.314 134.908L306.176 172.757C297.115 189.789 297.115 210.211 306.176 227.243L326.314 265.092C329.092 270.314 325.44 276.64 319.529 276.845L276.681 278.33C257.401 278.998 239.714 289.209 229.495 305.573L206.786 341.937C203.653 346.954 196.347 346.954 193.214 341.937L170.505 305.573C160.286 289.209 142.599 278.998 123.319 278.33L80.4714 276.845C74.5604 276.64 70.9078 270.314 73.6859 265.092L93.8236 227.243C102.885 210.211 102.885 189.789 93.8236 172.757L73.6859 134.908C70.9078 129.686 74.5604 123.36 80.4714 123.155L123.319 121.67C142.599 121.002 160.286 110.791 170.505 94.4271L193.214 58.0626C196.347 53.046 203.653 53.046 206.786 58.0626Z" transform="translate(-46.8897 -28.8898)" stroke-width="50"/>
</svg>
